HIERARCHY
ROOT HipCenter
{
    OFFSET 0.0 0.0 -0.0
    CHANNELS 6 Xposition Yposition Zposition Zrotation Xrotation Yrotation
    JOINT Spine
    {
        OFFSET 0.0 11.126236915588379 0.0
        CHANNELS 3 Zrotation Xrotation Yrotation
        JOINT ShoulderCenter
        {
            OFFSET 0.0 30.907075881958008 0.0
            CHANNELS 3 Zrotation Xrotation Yrotation
            JOINT LeftShoulder
            {
                OFFSET 18.519453048706055 0.0 0.0
                CHANNELS 3 Zrotation Xrotation Yrotation
                JOINT LeftElbow
                {
                    OFFSET 24.317726135253906 0.0 0.0
                    CHANNELS 3 Zrotation Xrotation Yrotation
                    JOINT LeftWrist
                    {
                        OFFSET 27.573814392089844 0.0 0.0
                        CHANNELS 3 Zrotation Xrotation Yrotation
                        JOINT LeftHand
                        {
                            OFFSET 2.755006790161133 0.0 0.0
                            CHANNELS 3 Zrotation Xrotation Yrotation
                            End Site
                            {
                                OFFSET 1.102002739906311 0.0 0.0
                            }
                        }
                    }
                }
            }
            JOINT RightShoulder
            {
                OFFSET -18.519453048706055 0.0 0.0
                CHANNELS 3 Zrotation Xrotation Yrotation
                JOINT RightElbow
                {
                    OFFSET -24.317726135253906 0.0 0.0
                    CHANNELS 3 Zrotation Xrotation Yrotation
                    JOINT RightWrist
                    {
                        OFFSET -27.573814392089844 0.0 0.0
                        CHANNELS 3 Zrotation Xrotation Yrotation
                        JOINT RightHand
                        {
                            OFFSET -2.755006790161133 0.0 0.0
                            CHANNELS 3 Zrotation Xrotation Yrotation
                            End Site
                            {
                                OFFSET -1.102002739906311 0.0 0.0
                            }
                        }
                    }
                }
            }
            End Site
            {
                OFFSET 0.0 12.362829208374023 0.0
            }
        }
    }
    JOINT LeftHip
    {
        OFFSET 21.54745864868164 0.0 0.0
        CHANNELS 3 Zrotation Xrotation Yrotation
        JOINT LeftKnee
        {
            OFFSET 0.0 -35.14631652832031 0.0
            CHANNELS 3 Zrotation Xrotation Yrotation
            JOINT LeftAnkle
            {
                OFFSET 0.0 -39.29071044921875 0.0
                CHANNELS 3 Zrotation Xrotation Yrotation
                JOINT LeftFoot
                {
                    OFFSET 0.0 -9.145967483520508 0.0
                    CHANNELS 3 Zrotation Xrotation Yrotation
                    End Site
                    {
                        OFFSET 0.0 0.0 3.6583869457244873
                    }
                }
            }
        }
    }
    JOINT RightHip
    {
        OFFSET -21.54745864868164 0.0 0.0
        CHANNELS 3 Zrotation Xrotation Yrotation
        JOINT RightKnee
        {
            OFFSET 0.0 -35.14631652832031 0.0
            CHANNELS 3 Zrotation Xrotation Yrotation
            JOINT RightAnkle
            {
                OFFSET 0.0 -39.29071044921875 0.0
                CHANNELS 3 Zrotation Xrotation Yrotation
                JOINT RightFoot
                {
                    OFFSET 0.0 -9.145967483520508 0.0
                    CHANNELS 3 Zrotation Xrotation Yrotation
                    End Site
                    {
                        OFFSET 0.0 0.0 3.6583869457244873
                    }
                }
            }
        }
    }
}
MOTION
Frames: 5
Frame Time: 0.03333333333333333
9.199999809265137 -9.5 0.20000000298023224 21.705433507000294 2.5823918156825734 -112.47197406386066 10.388450795378313 -13.550255106089734 1.2265379120735764 2.398446248590518e-07 -2.31728732603621e-07 -1.5637600897418682 101.94324572542129 -19.760923228969514 175.1422411316117 3.4690210338275462e-06 -8.526013557488118e-07 55.09072479965154 -179.99997377912706 -80.3586429721004 -146.24093025003535 -9.93923337957349e-17 3.1805546814635168e-15 2.758691436281349e-33 -119.06614147804557 -19.772968674682108 -175.30604722100185 -7.928681739273189e-07 1.3212326681424797e-06 -52.63279455132165 -179.99999613967339 -62.45259973639392 165.48860285410623 6.3611093629270335e-15 -2.2069531490250793e-32 -3.975693351829396e-16 -12.617846671921043 -57.980664618188726 -12.930071699020765 13.810325221358282 47.44610346859297 -30.832839696230025 62.7394903624542 -66.56291872760892 87.75312878977849 0.0 0.0 1.5902773407317582e-15 19.667090671434917 -45.52156543196949 16.117443346304036 -0.7195569783066738 22.94379613565238 10.18621180152428 -101.40238897895105 -55.188192220731544 -129.48470749706544 -1.5902773407317584e-15 8.827812596100317e-32 -6.3611093629270335e-15
6.400000095367432 -9.600000381469727 -1.4000000953674316 23.334039436219097 -1.0314510238020496 -110.32754473185052 9.614280119629814 -14.075949263605217 1.2631486225802213 1.0063176930866097e-07 -4.3243617415944703e-07 -1.6782384833921877 101.40593251809238 -9.882109497994579 170.5775627533127 -5.3681397311103656e-06 -1.9344937122432856e-06 54.58544752035225 -179.99998804505475 -79.07519230500895 -146.70753488017698 1.1927080055488188e-15 0.0 0.0 -118.88819375442235 -16.48756764536952 -171.81617662808625 -4.3688549368012294e-06 -3.083392464378954e-07 -48.90209563828451 179.999995634253 -68.51779327582766 160.32905417422182 -6.3611093629270335e-15 -3.089734408635111e-31 5.565970692561154e-15 -14.670886974992749 -50.2121056968591 -15.49520391625821 3.755946048415634 32.0617220820579 -14.692404702751233 67.25391353111938 -67.97370737777347 89.24271201520743 4.413906298050159e-31 6.3611093629270335e-15 -7.951386703658792e-15 16.782477941006857 -43.241075174626516 14.0502871528959 -1.1298320510502158 18.73978001736497 8.99804016951138 -101.3330094816101 -62.27254201389714 -129.46479102309246 -6.3611093629270335e-15 6.3611093629270335e-15 3.531125038440127e-31
2.8000001907348633 -9.0 -3.4000000953674316 25.173524895169106 -5.171314781901737 -107.87364554419261 8.430608142150163 -16.239021556365163 1.6733988669959587 2.7506026796980094e-07 9.944304688331782e-07 -3.8389197588024273 103.17476579803682 3.7236800943298496 163.8501551377509 -7.1736197802231385e-06 -3.087430476621912e-06 51.740069279107416 179.99998921378798 -77.464413544632 -144.85856606644344 1.5902773407317584e-15 4.4139062980501586e-32 3.1805546814635168e-15 -116.4809571726503 -13.506360375996206 -168.12846523369166 4.9219164922078995e-06 -1.5390516648775772e-06 -44.98335152311495 -179.99998512031138 -66.0391955232567 156.3487845074321 -6.3611093629270335e-15 -2.2069531490250793e-32 3.975693351829396e-16 -18.16795986130286 -42.951395712459565 -17.626549920352407 1.382041689054172 18.768789640190043 -7.018048844355128 76.56286675388388 -76.45890996880388 96.51857087127644 0.0 0.0 0.0 11.619700076470753 -38.89059489843668 12.746309087747179 -1.8263705089731863 10.456376056487432 5.678925438613875 -119.67426475080495 -69.85012509707487 -149.48051140853482 1.5902773407317584e-15 -8.827812596100317e-32 -6.3611093629270335e-15
-0.8999999761581421 -8.199999809265137 -5.299999713897705 27.030861246157084 -9.29180330657601 -106.04723427146347 6.849549574074462 -18.91683469436728 2.5000100655357587 6.469485509494955e-07 -4.1291071158655877e-07 -5.93959057879269 108.29450154621145 17.12401431612238 157.72912606129844 -2.511003650930311e-07 5.697761787948008e-06 45.80348896646883 179.9999641429569 -78.11068640473005 -145.71346230142663 4.770832022195275e-15 3.1805546814635168e-15 -1.3241718894150476e-31 -114.71617283227559 -11.912176846009823 -165.28731537118898 -3.054186229957684e-07 7.745126525133207e-07 -41.62183100151925 -179.99999309370833 -61.94128179076685 156.8714087266589 -6.361109362927035e-15 -7.724336021587778e-32 1.391492673140289e-15 -20.358039592643376 -33.24592662379732 -20.101206211198814 0.9600424232395972 3.40071371382336 -1.1241003121465456 70.1409833809771 -83.989147357582 88.40224934903638 1.7655625192200634e-31 -6.361109362927032e-15 3.180554681463516e-15 5.9287019591635834 -30.47501408815418 15.702090608211716 0.5451317324796529 -1.870973682247702 -0.9189619535938448 -139.91719949601818 -68.50884484063454 -167.0017270779071 -1.5902773407317584e-15 -8.827812596100317e-32 6.3611093629270335e-15
-4.5 -7.299999713897705 -7.500000476837158 27.03086174094737 -8.783865460583925 -106.7156706901652 8.302884789914941 -19.0353623323582 2.532792472248314 -1.7076979552259414e-07 -7.359449020555809e-07 -5.981646470460425 116.10221709128804 27.836416310342322 153.16271157772806 -1.9002229181688875e-06 6.593749898914168e-06 38.491321734384464 -179.99998352497337 -75.12648575524928 -143.89565928641537 3.1805546814635168e-15 3.1805546814635168e-15 -8.827812596100317e-32 -113.74770615042587 -12.216114647767819 -164.25269219215733 -7.450674667516257e-07 2.4552852172067765e-06 -38.37821645841177 179.99999187930283 -58.077295849628165 156.3596763688515 0.0 0.0 2.3854160110976368e-15 -16.136749294268842 -23.791547499657295 -21.395974783870614 -1.7594875836638517 -6.214713570956056 1.6348759795043266 89.45930898667031 -81.6201947436367 104.28706823095312 -6.361109362927033e-15 0.0 0.0 6.798428757566135 -23.289155083612506 18.488975417549874 2.1604868282513876 -8.109860502306185 -3.4261555002341906 -121.19892036055842 -70.8376173244746 -145.49138881052465 -3.1805546814635176e-15 -6.361109362927035e-15 -1.7655625192200634e-31
